<svg width="28" height="20" viewBox="0 0 28 20" fill="none" xmlns="http://www.w3.org/2000/svg">
<g clip-path="url(#clip0_536_38)">
<path d="M13.9319 15.0655C12.5102 16.2008 10.3477 17.2721 7.46969 17.2721C4.59163 17.2721 2.42919 16.2008 1.00743 15.0655C0.36685 13.6453 0 11.9946 0 10.2335C0 8.47235 0.366849 6.82166 1.00742 5.40144C2.42919 4.26614 4.59162 3.19483 7.46969 3.19483C10.3477 3.19483 12.5102 4.26614 13.9319 5.40145C14.5725 6.82167 14.9394 8.47235 14.9394 10.2335C14.9394 11.9946 14.5725 13.6453 13.9319 15.0655Z" fill="white" stroke="#C0C0C0" stroke-width="33.3333"/>
<path d="M27.3883 10.2335C27.3883 14.6647 26.831 18.2569 26.1434 18.2569C25.4558 18.2569 24.8984 14.6647 24.8984 10.2335C24.8984 5.80238 25.4558 2.21021 26.1434 2.21021C26.831 2.21021 27.3883 5.80238 27.3883 10.2335Z" fill="white" stroke="#C0C0C0" stroke-width="33.3333"/>
<path d="M22.558 17.0477C21.7345 17.1908 20.8548 17.2721 19.9194 17.2721C18.984 17.2721 18.1043 17.1908 17.2809 17.0477C16.6036 15.3049 16.1846 12.8953 16.1846 10.2335C16.1846 7.57164 16.6036 5.1621 17.2809 3.41929C18.1043 3.27621 18.984 3.19483 19.9194 3.19483C20.8548 3.19483 21.7345 3.27621 22.558 3.41929C23.2352 5.1621 23.6543 7.57164 23.6543 10.2335C23.6543 12.8953 23.2352 15.3049 22.558 17.0477Z" fill="white" stroke="#C0C0C0" stroke-width="33.3333"/>
</g>
<defs>
<clipPath id="clip0_536_38">
<rect width="28" height="19.256" fill="white" transform="translate(0 0.605469)"/>
</clipPath>
</defs>
</svg>
