<svg width="22" height="20" viewBox="0 0 22 20" fill="none" xmlns="http://www.w3.org/2000/svg">
<path d="M8.65988 11.5309L3.10128 11.1872C2.69813 11.1651 2.31604 11 2.02363 10.7216C1.73122 10.4432 1.54763 10.0697 1.50584 9.66809L1.00939 4.91995C0.984316 4.68256 1.00961 4.44254 1.0836 4.21559C1.1576 3.98863 1.27864 3.77983 1.43882 3.60284C1.599 3.42584 1.79471 3.28462 2.01318 3.18841C2.23165 3.09219 2.46795 3.04314 2.70667 3.04446H19.2933C19.532 3.04314 19.7684 3.09219 19.9868 3.18841C20.2053 3.28462 20.401 3.42584 20.5612 3.60284C20.7214 3.77983 20.8424 3.98863 20.9164 4.21559C20.9904 4.44254 21.0157 4.68256 20.9906 4.91995L20.4814 9.66809C20.4396 10.0697 20.2561 10.4432 19.9636 10.7216C19.6712 11 19.2891 11.1651 18.886 11.1872L13.3274 11.5309" stroke="white" stroke-width="2"/>
<path d="M19.4796 11.0727V16.6228C19.4796 17.0729 19.3008 17.5046 18.9825 17.8229C18.6642 18.1412 18.2325 18.3201 17.7824 18.3201H4.20412C3.75397 18.3201 3.32226 18.1412 3.00396 17.8229C2.68566 17.5046 2.50684 17.0729 2.50684 16.6228V11.043" stroke="white" stroke-width="2"/>
<path d="M8.87207 3.04445V2.19581C8.87207 1.97073 8.96148 1.75488 9.12063 1.59573C9.27978 1.43658 9.49564 1.34717 9.72071 1.34717H12.2666C12.4917 1.34717 12.7076 1.43658 12.8667 1.59573C13.0259 1.75488 13.1153 1.97073 13.1153 2.19581V3.04445" stroke="white" stroke-width="2"/>
<path d="M12.1598 10.364H9.82606C9.18161 10.364 8.65918 10.8864 8.65918 11.5309C8.65918 12.1753 9.18161 12.6978 9.82606 12.6978H12.1598C12.8043 12.6978 13.3267 12.1753 13.3267 11.5309C13.3267 10.8864 12.8043 10.364 12.1598 10.364Z" stroke="white" stroke-width="2"/>
</svg>
