<svg width="16" height="21" viewBox="0 0 16 21" fill="none" xmlns="http://www.w3.org/2000/svg">
<path d="M15.0294 12.9937L14.0294 11.3337C13.8194 10.9637 13.6294 10.2637 13.6294 9.85367V7.32367C13.6294 4.97366 12.2494 2.94366 10.2594 1.99366C9.73936 1.07366 8.77936 0.503662 7.67936 0.503662C6.58936 0.503662 5.6094 1.09366 5.0894 2.02366C3.1394 2.99366 1.7894 5.00366 1.7894 7.32367V9.85367C1.7894 10.2637 1.5994 10.9637 1.3894 11.3237L0.379396 12.9937C-0.0206042 13.6637 -0.110604 14.4037 0.139396 15.0837C0.379396 15.7537 0.949396 16.2737 1.6894 16.5237C3.6294 17.1837 5.6694 17.5037 7.70936 17.5037C9.74936 17.5037 11.7894 17.1837 13.7294 16.5337C14.4294 16.3037 14.9694 15.7737 15.2294 15.0837C15.4894 14.3937 15.4194 13.6337 15.0294 12.9937Z" fill="white"/>
<path d="M10.5182 18.5137C10.0982 19.6737 8.98817 20.5037 7.68817 20.5037C6.89817 20.5037 6.11817 20.1837 5.56816 19.6137C5.24816 19.3137 5.00816 18.9137 4.86816 18.5037C4.99816 18.5237 5.12816 18.5337 5.26816 18.5537C5.49816 18.5837 5.73817 18.6137 5.97817 18.6337C6.54817 18.6837 7.12817 18.7137 7.70818 18.7137C8.27818 18.7137 8.84818 18.6837 9.40818 18.6337C9.61818 18.6137 9.82818 18.6037 10.0282 18.5737C10.1882 18.5537 10.3482 18.5337 10.5182 18.5137Z" fill="white"/>
</svg>
