<svg width="20" height="21" viewBox="0 0 20 21" fill="none" xmlns="http://www.w3.org/2000/svg">
<path fill-rule="evenodd" clip-rule="evenodd" d="M15.8608 7.43595C16.675 6.62181 16.675 5.30177 15.8608 4.48759C15.0467 3.67341 13.7266 3.67341 12.9124 4.48759C12.0982 5.30177 12.0982 6.62181 12.9124 7.43595C13.7266 8.25018 15.0467 8.25018 15.8608 7.43595ZM14.9925 5.35589C15.3271 5.69051 15.3271 6.23306 14.9925 6.56769C14.6579 6.90232 14.1154 6.90232 13.7807 6.56769C13.446 6.23306 13.446 5.69051 13.7807 5.35589C14.1154 5.02126 14.6579 5.02126 14.9925 5.35589Z" fill="white"/>
<path fill-rule="evenodd" clip-rule="evenodd" d="M0.449577 10.3296C-0.14986 10.929 -0.149858 11.9009 0.449577 12.5003L7.84685 19.8976C8.44623 20.497 9.41815 20.497 10.0175 19.8976L19.5505 10.3647C19.8383 10.0769 20 9.68648 20 9.2794V1.88211C20 1.03439 19.3128 0.347168 18.4651 0.347168H11.0678C10.6607 0.347168 10.2703 0.508883 9.98246 0.796745L0.449577 10.3296ZM9.47615 18.2683C9.17569 18.5687 8.68869 18.5687 8.38823 18.2683L2.07888 11.9589C1.77848 11.6585 1.77848 11.1715 2.07888 10.871L10.8425 2.10742C10.9868 1.96316 11.1824 1.88211 11.3865 1.88211H17.6958C18.1206 1.88211 18.4651 2.22651 18.4651 2.65135V8.96071C18.4651 9.16478 18.384 9.3604 18.2398 9.50463L9.47615 18.2683Z" fill="white"/>
</svg>
