<svg width="22" height="23" viewBox="0 0 22 23" fill="none" xmlns="http://www.w3.org/2000/svg">
<path d="M21 11.95V13.4711C21 17.3719 21 19.3224 19.8284 20.5342C18.6569 21.7461 16.7712 21.7461 13 21.7461H9C5.22876 21.7461 3.34315 21.7461 2.17157 20.5342C1 19.3224 1 17.3719 1 13.4711V11.95C1 9.66158 1 8.51737 1.5192 7.56883C2.0384 6.6203 2.98695 6.0316 4.88403 4.85422L6.88403 3.61296C8.88939 2.36838 9.8921 1.74609 11 1.74609C12.1079 1.74609 13.1106 2.36838 15.116 3.61296L17.116 4.85421C19.0131 6.0316 19.9616 6.6203 20.4808 7.56883" stroke="white" stroke-width="2" stroke-linecap="round"/>
<path d="M14.3415 17.6436H7.6748" stroke="white" stroke-width="2" stroke-linecap="round"/>
</svg>
