<svg width="20" height="17" viewBox="0 0 20 17" fill="none" xmlns="http://www.w3.org/2000/svg">
<path d="M1.42857 2.1786V13.6387C1.42857 14.0186 1.57908 14.383 1.84699 14.6516C2.1149 14.9203 2.47826 15.0712 2.85714 15.0712H17.1429C17.5217 15.0712 17.8851 14.9203 18.153 14.6516C18.4209 14.383 18.5714 14.0186 18.5714 13.6387V2.1786H1.42857ZM1.42857 0.746094H18.5714C18.9503 0.746094 19.3137 0.897018 19.5816 1.16567C19.8495 1.43431 20 1.79868 20 2.1786V13.6387C20 14.3985 19.699 15.1272 19.1632 15.6645C18.6273 16.2018 17.9006 16.5037 17.1429 16.5037H2.85714C2.09938 16.5037 1.37266 16.2018 0.836838 15.6645C0.30102 15.1272 0 14.3985 0 13.6387V2.1786C0 1.79868 0.15051 1.43431 0.418419 1.16567C0.686328 0.897018 1.04969 0.746094 1.42857 0.746094Z" fill="white"/>
<path d="M18.7877 2.16016L13.2395 8.55604C12.8355 9.02183 12.3374 9.39512 11.7787 9.65088C11.2199 9.90664 10.6134 10.039 9.99979 10.039C9.38619 10.039 8.77968 9.90664 8.22093 9.65088C7.66218 9.39512 7.16411 9.02183 6.76011 8.55604L1.21191 2.16016H18.7877ZM3.1187 2.16016L7.83905 7.60245C8.10838 7.91305 8.44046 8.16198 8.813 8.33254C9.18555 8.50309 9.58994 8.59133 9.99907 8.59133C10.4082 8.59133 10.8126 8.50309 11.1851 8.33254C11.5577 8.16198 11.8898 7.91305 12.1591 7.60245L16.8809 2.16016H3.1187Z" fill="white"/>
</svg>
