<svg width="20" height="23" viewBox="0 0 20 23" fill="none" xmlns="http://www.w3.org/2000/svg">
<path fill-rule="evenodd" clip-rule="evenodd" d="M18.7199 3.58642L0.987355 10.0441L0 7.33837L17.7325 0.891113L18.7199 3.58642ZM20 22.1764H1.0168V10.1878H20V22.1764ZM17.6321 3.60201V1.29991L16.3797 1.75202V4.06277L17.6321 3.60201ZM15.1377 4.51661V2.20585L13.8801 2.65276V4.98257L15.1377 4.51661ZM12.5567 5.40696V3.12046L11.2992 3.57256V5.86946L12.5567 5.40696ZM19.6484 12.7255L18.8585 10.5533H17.5195L18.3094 12.7255H19.6484ZM16.9132 12.7255L16.1233 10.5533H14.7791L15.5742 12.7255H16.9132ZM10.0433 6.38046V4.06451L8.78746 4.51661V6.82737L10.0433 6.38046ZM14.2751 12.7255L13.4852 10.5533H12.1462L12.9361 12.7255H14.2751ZM7.46232 7.26561V4.96872L6.19089 5.42082V7.73158L7.46232 7.26561ZM11.5399 12.7255L10.75 10.5533H9.40759L10.1975 12.7255H11.5399ZM4.9922 8.21486V5.89718L3.72597 6.36487V8.66177L4.9922 8.21486ZM8.84462 12.7255L8.05474 10.5533H6.71575L7.50563 12.7255H8.84462ZM2.39737 9.10002V6.80312L1.13979 7.25003V9.56598L2.39737 9.10002ZM6.12506 12.7255L5.32132 10.5533H3.99272L4.76875 12.7255H6.12506ZM3.45747 12.7255L2.65373 10.5533H1.31474L2.10462 12.7255H3.45747Z" fill="white"/>
</svg>
