<svg width="18" height="21" viewBox="0 0 18 21" fill="none" xmlns="http://www.w3.org/2000/svg">
<path d="M8.63667 0.319824C3.87 0.319824 0 4.18732 0 8.95649C0 13.474 4.12083 17.1373 8.63667 17.1373V20.3198C13.8825 17.6582 17.2733 13.3757 17.2733 8.95649C17.2733 4.18649 13.4033 0.319824 8.63667 0.319824ZM4.88667 5.54649H10.5675C10.7169 5.54627 10.865 5.57554 11.0031 5.63263C11.1412 5.68972 11.2667 5.7735 11.3723 5.87917C11.478 5.98484 11.5618 6.11032 11.6189 6.24843C11.6759 6.38654 11.7052 6.53455 11.705 6.68399V8.10399L13.9783 5.83149V12.0823L11.7067 9.81066V11.2298C11.707 11.3793 11.6778 11.5274 11.6208 11.6655C11.5637 11.8037 11.4799 11.9292 11.3742 12.0349C11.2685 12.1406 11.143 12.2244 11.0049 12.2814C10.8667 12.3385 10.7186 12.3677 10.5692 12.3673H4.88667C4.595 12.3673 4.305 12.2565 4.0825 12.034C3.9766 11.9286 3.89263 11.8033 3.83542 11.6652C3.7782 11.5272 3.74889 11.3792 3.74917 11.2298V6.68399C3.74884 6.53452 3.77803 6.38646 3.83508 6.2483C3.89213 6.11014 3.9759 5.98461 4.0816 5.87892C4.18729 5.77323 4.31282 5.68945 4.45097 5.63241C4.58913 5.57536 4.7372 5.54616 4.88667 5.54649Z" fill="white"/>
</svg>
