<svg width="22" height="19" viewBox="0 0 22 19" fill="none" xmlns="http://www.w3.org/2000/svg">
<path d="M9.94577 1.51152H7.84201C7.39847 1.51208 7.06522 1.8189 7.06463 2.16774V4.03328L10.7231 4.03271L10.7231 2.16774L10.7231 2.16757M9.94577 1.51152L9.94589 1.41152C10.4301 1.41213 10.8224 1.75023 10.8231 2.16757H10.7231M9.94577 1.51152C10.3892 1.51208 10.7225 1.8188 10.7231 2.16757M9.94577 1.51152L10.7231 2.16757M7.84201 17.3397H9.94577C10.3892 17.3392 10.7225 17.0325 10.7231 16.6837M7.84201 17.3397L10.8231 16.6837L10.7231 16.6835M7.84201 17.3397C7.39847 17.3392 7.06522 17.0324 7.06463 16.6835V14.818H10.7231M7.84201 17.3397L10.7231 14.818M10.7231 16.6837C10.7231 16.6836 10.7231 16.6836 10.7231 16.6835M10.7231 16.6837L10.7231 16.6835M10.7231 16.6837V14.818M10.7231 16.6835L10.7231 14.818M14.1767 0.478269L14.1769 0.478897L12.1572 0.945136L12.1572 0.945121L12.1555 0.945543C11.9529 0.99606 11.7711 1.06881 11.607 1.16168C11.236 0.699744 10.6294 0.405461 9.94686 0.403662H9.94659L7.84259 0.403662L7.84248 0.403662C7.29855 0.404256 6.80276 0.592175 6.4389 0.899487C6.07406 0.592375 5.57883 0.404861 5.03548 0.404267H5.03537L2.92996 0.404267L2.92985 0.404267C1.8238 0.405523 0.901508 1.18077 0.9 2.16742V2.16757L0.9 16.6837L0.9 16.6839C0.901508 17.6705 1.8238 18.4458 2.92985 18.447H2.92996H5.03537H5.03559C5.57934 18.4458 6.07509 18.2585 6.43899 17.9512C6.80391 18.2589 7.29916 18.4458 7.84237 18.447H7.84259H9.94659H9.94671C11.0528 18.4458 11.975 17.6705 11.9766 16.6839V16.6837V7.15196L15.0788 17.1319L15.0791 17.1328C15.3239 17.8953 16.1146 18.433 17.0382 18.4343H17.0383H17.0383H17.0384H17.0384H17.0384H17.0384H17.0384H17.0384H17.0385H17.0385H17.0385H17.0385H17.0385H17.0385H17.0386H17.0386H17.0386H17.0386H17.0386H17.0386H17.0387H17.0387H17.0387H17.0387H17.0387H17.0387H17.0387H17.0388H17.0388H17.0388H17.0388H17.0388H17.0389H17.0389H17.0389H17.0389H17.0389H17.0389H17.039H17.039H17.039H17.039H17.039H17.039H17.0391H17.0391H17.0391H17.0391H17.0391H17.0392H17.0392H17.0392H17.0392H17.0392H17.0392H17.0393H17.0393H17.0393H17.0393H17.0393H17.0394H17.0394H17.0394H17.0394H17.0394H17.0395H17.0395H17.0395H17.0395H17.0395H17.0396H17.0396H17.0396H17.0396H17.0396H17.0397H17.0397H17.0397H17.0397H17.0397H17.0398H17.0398H17.0398H17.0398H17.0398H17.0399H17.0399H17.0399H17.0399H17.0399H17.0399H17.04H17.04H17.04H17.04H17.04H17.04H17.0401H17.0401H17.0401H17.0401H17.0401H17.0401H17.0402H17.0402H17.0402H17.0402H17.0402H17.0402H17.0403H17.0403H17.0403H17.0403H17.0403H17.0403H17.0403H17.0404H17.0404H17.0404H17.0404H17.0404H17.0404H17.0405H17.0405H17.0405H17.0405H17.0405H17.0405H17.0405H17.0406H17.0406H17.0406H17.0406H17.0406H17.0406H17.0407H17.0407H17.0407H17.0407H17.0407H17.0407H17.0408H17.0408H17.0408H17.0408H17.0408H17.0408H17.0408H17.0409H17.0409H17.0409H17.0409H17.0409H17.0409H17.041H17.041H17.041H17.041H17.041H17.041H17.0411H17.0411H17.0411H17.0411H17.0411H17.0411H17.0412H17.0412H17.0412H17.0412H17.0412H17.0412H17.0413H17.0413H17.0413H17.0413H17.0413H17.0413H17.0414H17.0414H17.0414H17.0414H17.0414H17.0414H17.0414H17.0415H17.0415H17.0415H17.0415H17.0415H17.0415H17.0416H17.0416H17.0416H17.0416H17.0416H17.0416H17.0417H17.0417H17.0417H17.0417H17.0417H17.0417H17.0418H17.0418H17.0418H17.0418H17.0418C17.2258 18.4343 17.4041 18.4128 17.5739 18.3723L17.5738 18.3723L19.5936 17.9068L19.5943 17.9066C20.4578 17.7013 21.1 17.0242 21.1 16.2022C21.1 16.049 21.0774 15.8996 21.0347 15.7575V15.7564L21.0302 15.7419L16.6713 1.71934L16.6711 1.71848C16.4263 0.955361 15.6348 0.416969 14.7097 0.416969C14.5251 0.416969 14.3469 0.438444 14.1767 0.478269ZM6.3737 0.957143C6.37326 0.957552 6.37282 0.957962 6.37238 0.958371L6.40592 0.99453L6.43898 1.0329C6.08808 0.708098 5.58909 0.504872 5.03537 0.504267H2.92996C1.86462 0.505477 1.0014 1.24943 1 2.16757L6.3737 0.957143ZM12.4701 2.01781L12.4701 2.01788L12.4738 2.01703L14.5063 1.54767L14.5071 1.54748C14.5673 1.53304 14.638 1.52423 14.7118 1.52423C15.078 1.52423 15.3732 1.73655 15.4607 2.00723L15.4614 2.00988L15.4613 2.00991L15.4627 2.0146L16.021 3.81031L12.4891 4.62586L11.9751 2.97195V2.37405C12.0705 2.20341 12.2464 2.07184 12.4661 2.01857L12.4701 2.01781ZM19.848 16.2004C19.848 16.3178 19.8108 16.4287 19.7445 16.5244C19.7445 16.5244 19.7444 16.5244 19.7444 16.5245L19.7445 16.5245C19.6448 16.6729 19.4817 16.7853 19.2835 16.8327L19.2793 16.8335L19.2793 16.8334L19.2757 16.8342L17.2418 17.303L17.2416 17.3031C17.182 17.317 17.1124 17.3252 17.0404 17.3252C16.6742 17.3252 16.3782 17.114 16.2887 16.8437L16.2881 16.8414L16.2882 16.8414L16.2867 16.8367L15.7285 15.0404L19.2604 14.2254L19.823 16.036L19.8235 16.0373C19.8389 16.0846 19.848 16.1412 19.848 16.2004ZM15.396 13.9731L12.8223 5.69318L16.3535 4.87763L18.9278 13.1581L15.396 13.9731ZM5.81192 13.7107H2.152V5.14054L5.81192 5.13997V13.7107ZM7.06463 13.7107V5.14054L10.7231 5.13997V13.7107H7.06463ZM2.92938 1.51152H5.03454C5.47808 1.51208 5.81134 1.8189 5.81192 2.16774V4.03271L2.152 4.03328L2.152 2.16774C2.152 2.16772 2.152 2.1677 2.152 2.16767C2.15263 1.81886 2.48587 1.51208 2.92938 1.51152ZM5.03454 17.3397H2.92938C2.48587 17.3392 2.15263 17.0324 2.152 16.6836C2.152 16.6836 2.152 16.6836 2.152 16.6835L2.152 14.818H5.81192V16.6835C5.81134 17.0324 5.47808 17.3392 5.03454 17.3397Z" fill="white" stroke="white" stroke-width="0.2"/>
</svg>
