<svg width="20" height="21" viewBox="0 0 20 21" fill="none" xmlns="http://www.w3.org/2000/svg">
<path d="M16.6666 9.67074V11.3374H10.8334V17.1707H9.1668V11.3374H3.33365V9.67074H9.1668V3.83741H10.8334V9.67074H16.6666ZM17.0707 17.5749C13.1658 21.4799 6.83437 21.4799 2.92866 17.5749C-0.97622 13.6699 -0.97622 7.33824 2.92866 3.43241C6.83437 -0.472588 13.165 -0.472588 17.0707 3.43241C20.9764 7.33824 20.9764 13.6699 17.0707 17.5749ZM15.8924 4.61158C12.6909 1.40991 7.42018 1.29908 4.10779 4.61158C0.858723 7.86074 0.858723 13.1474 4.10779 16.3966C7.42018 19.7091 12.6917 19.5974 15.8924 16.3966C19.1415 13.1474 19.1415 7.86074 15.8924 4.61158Z" fill="white"/>
</svg>
