<svg width="20" height="21" viewBox="0 0 20 21" fill="none" xmlns="http://www.w3.org/2000/svg">
<path d="M13.2031 3.34026C12.8906 3.34026 12.6562 3.59401 12.6562 3.90651V6.68026C12.6562 6.99276 12.8906 7.22714 13.2031 7.22714H15.9769C16.2894 7.22714 16.5431 6.99276 16.5431 6.68026V3.90651C16.5431 3.59401 16.2894 3.34026 15.9769 3.34026H13.2031ZM15.9769 6.68026H13.2031V3.90651H15.9769V6.68026ZM18.75 18.3015C19.4338 18.3015 20 17.7353 20 17.0515V1.42651C20 0.742764 19.4338 0.176514 18.75 0.176514H1.25C0.56625 0.176514 0 0.742764 0 1.42651V17.0515C0 17.7353 0.56625 18.3015 1.25 18.3015H6.25V19.5515C6.25 19.9034 6.52375 20.1765 6.875 20.1765C7.22625 20.1765 7.5 19.9028 7.5 19.5515V18.3015H12.5V19.5515C12.5 19.9034 12.7738 20.1765 13.125 20.1765C13.4762 20.1765 13.75 19.9028 13.75 19.5515V18.3015H18.75ZM1.25 1.42651H18.75V17.0515H13.75V16.4265C13.75 16.0746 13.4762 15.8015 13.125 15.8015C12.7738 15.8015 12.5 16.0753 12.5 16.4265V17.0515H7.5V16.4265C7.5 16.0746 7.22625 15.8015 6.875 15.8015C6.52375 15.8015 6.25 16.0753 6.25 16.4265V17.0515H1.25V1.42651Z" fill="white"/>
</svg>
