<svg width="20" height="21" viewBox="0 0 20 21" fill="none" xmlns="http://www.w3.org/2000/svg">
<path d="M19.0909 0.176514H13.635C13.1329 0.176514 12.7259 0.583544 12.7259 1.0856V1.9947H9.99997C9.49791 1.9947 9.09088 2.40173 9.09088 2.90379V9.26742H7.27271V8.05524C7.27271 7.55318 6.86568 7.14615 6.36362 7.14615H0.909088C0.407029 7.14615 0 7.55318 0 8.05524V12.2977C0 12.7997 0.407029 13.2068 0.909088 13.2068H6.36362C6.86568 13.2068 7.27271 12.7997 7.27271 12.2977V11.0856H9.09088V17.4492C9.09088 17.9513 9.49791 18.3583 9.99997 18.3583H12.7259V19.2674C12.7259 19.7695 13.1329 20.1765 13.635 20.1765H19.0909C19.593 20.1765 20 19.7695 20 19.2674V15.6311C20 15.129 19.593 14.722 19.0909 14.722H13.635C13.1329 14.722 12.7259 15.129 12.7259 15.6311V16.5401H10.9091V11.0856H12.7259V11.9947C12.7259 12.4968 13.1329 12.9038 13.635 12.9038H19.0909C19.593 12.9038 20 12.4968 20 11.9947V8.35833C20 7.85627 19.593 7.44924 19.0909 7.44924H13.635C13.1329 7.44924 12.7259 7.85627 12.7259 8.35833V9.26742H10.9091V3.81288H12.7259V4.72197C12.7259 5.22403 13.1329 5.63106 13.635 5.63106H19.0909C19.593 5.63106 20 5.22403 20 4.72197V1.0856C20 0.583483 19.593 0.176514 19.0909 0.176514Z" fill="white"/>
</svg>
